<svg xmlns="http://www.w3.org/2000/svg" width="2347.184" height="647.622" viewBox="-152.4 -120.652 2347.184 647.622"><circle fill="none" stroke="#FFF" stroke-width="24" stroke-miterlimit="10" cx="171.411" cy="203.158" r="311.811"/><g fill="#FFF"><path d="M375.49 428.059c-.563 0-1.313.189-1.874.189h-38.983c-1.688 0-1.688 0-1.688-1.688 0-8.434-.187-16.867-.187-25.303-.188-14.992-.188-30.174-.375-45.355-.188-14.242-.188-28.299-.375-42.545-.187-14.805-.187-29.611-.375-44.416-.188-14.057-.188-28.301-.376-42.357v-5.81c-.748-.375-.937.187-1.311.376-19.492 16.678-38.984 33.359-58.475 50.039-.188.188-.563.375-.75.563-.563.75-1.124.563-1.687 0-2.624-2.438-5.061-4.873-7.685-7.496-18.554-17.994-37.296-35.984-55.851-53.79-.376-.375-.751-.562-.938-.75-.75-.749-.562-1.499-.562-2.436v-45.355c0-.938 0-1.686.562-2.437h4.499c.937 0 1.686.375 2.436 1.124 8.246 8.623 16.307 17.056 24.552 25.677 10.87 11.245 21.553 22.679 32.423 33.924.375.373.75.938 1.313 1.123.562-.375 1.125-.937 1.499-1.498 21.366-19.68 42.732-39.358 64.098-59.038.937-.937 1.874-1.125 3.187-1.125h31.487c.75 0 1.123.375 1.123 1.125 0 2.061.188 4.124.188 6.185.187 13.306.376 26.614.563 39.92.187 14.994.562 29.986.75 45.169.187 14.805.562 29.422.749 44.23.188 14.992.375 30.172.75 45.355.187 7.121.187 14.242.375 21.365.374 15.182.563 30.551.563 45.73v.561c.187.938 0 1.688.187 2.625v11.246c.188.938-.187 2.061.188 2.998v1.875zM64.188 194.347c-6.749.188-13.308 1.501-19.493 4.312-10.87 4.873-18.18 13.12-22.865 23.989-1.499 3.186-2.436 6.746-3.187 10.119 0 .375-.187.75-.187 1.127.187 9.182 1.124 18.365 4.686 26.986 4.873 11.809 13.495 19.68 26.052 23.055 3.373.936 6.746 1.311 10.308 1.311h28.861c.751 0 1.126.188.938.936V318.418c0 1.313-.375 2.25-1.124 3.188-20.991 27.738-41.794 55.475-62.785 83.215-5.436 7.309-11.059 14.619-16.493 21.926-.937 1.313-1.874 1.875-3.562 1.875h-43.293c-.375 0-.564-.188-.75.375v-.748c.937.186.937-.564 1.313-1.125 4.872-6.561 9.933-13.121 14.805-19.867 22.49-29.986 44.98-60.162 67.471-90.148.375-.563.937-1.125 1.312-1.875-3.56-.748-6.935-1.311-10.495-2.248-13.119-3.561-24.926-9.559-34.861-19.305-6.56-6.371-11.807-13.869-15.556-22.303-5.061-11.059-8.059-22.678-8.059-34.861 0-17.053 4.499-32.984 15.555-46.479 6.935-8.621 15.931-14.994 25.864-19.679 9.184-4.31 18.93-7.122 29.05-8.621 6.935-1.125 13.87-1.499 20.991-1.499h63.348c.937.562.937 1.499.937 2.248v30.176c0 1.874-.373 2.25-2.247 2.25H65.874c-.376-.752-.937-.752-1.686-.566zM204.939 366.586c-.375-.375-.375-.938-.375-1.313v-27.551-.563c5.247 2.438 9.933 5.813 14.245 9.371 13.492 11.434 22.115 25.863 25.488 43.295 5.247 27.551-4.872 55.102-26.989 73.094-10.682 8.621-23.052 13.869-36.547 16.117-1.311.188-2.622.375-4.121.563-.564-.188-.938 0-1.501 0H162.77c-.562 0-1.313-.188-1.874 0-27.176-3.373-47.417-17.055-60.35-41.043-4.686-8.623-7.121-18.182-8.059-27.928-2.625-29.236 12.369-57.35 38.421-72.156.375-.186.75-.375.938-.561.375.561.187 1.123.187 1.873v26.238c0 .75 0 1.313-.187 2.063 0 .936-.563 1.498-1.124 2.063-7.686 8.244-12.183 17.99-13.308 29.236-1.499 16.305 3.748 30.174 15.182 41.607 8.245 8.244 18.367 13.119 29.799 14.242 21.928 2.063 39.546-6.184 50.791-25.113 9.745-16.305 9.558-33.549.563-50.416-2.25-4.123-5.061-7.684-8.247-11.059.188-.936-.377-1.309-.563-2.059z"/><path d="M178.325 328.916v24.363c-.749.563-1.686.188-2.437.188-4.872-.563-9.746-.563-14.807.188-.749.188-1.499.188-2.061-.188-.563-.375-.376-.938-.376-1.498v-21.367c0-.563 0-1.125.188-1.686 5.435-.564 10.682-.938 16.118-.375 1.125.186 2.251.186 3.375.375z"/><path stroke="#FFF" stroke-miterlimit="10" d="M144.59-27.556c6.748-11.245 13.681-22.49 20.429-33.548.563-.937.749-1.875.187-2.812-1.123-1.874-1.874-3.749-2.997-5.809-3.938-8.059-8.06-16.119-11.996-24.178-.187-.562-.375-1.313-1.124-1.499 0 .375-.188.75-.375 1.124-1.499 3-2.998 5.998-4.499 9.185-13.119 26.614-26.05 53.039-38.982 79.653-.749 1.499-.562 2.436 0 3.935 8.809 16.681 17.43 33.362 26.238 50.042.563 1.125.938 2.436.938 3.749v98.771c0 2.812.188 5.809-.187 8.621.375.75.187 1.501.187 2.25v174.113c0 .748.188 1.313-.187 2.061-.375.938-.375 1.875-.375 3 0 8.996.187 18.178 0 27.176v48.916c0 2.998.375 3.373 3.187 3.373h20.616c2.997 0 3.56-.563 3.56-3.373v-63.16c-.374-1.125-.374-2.25-.374-3.373v-18.742c0-.75.188-1.5-.188-2.25-.375-.748-.187-1.498-.187-2.436V52.289c0-1.313-.188-2.623-.75-3.935-8.245-18.18-16.306-36.172-24.552-54.352-.562-1.126-.562-2.063.188-3.187 3.934-6.564 7.494-12.561 11.243-18.371zM204.752 159.675v177.676c.749.938.563 2.061.563 2.998 0 8.809-.189 17.805 0 26.613-.189 1.313 0 2.623 0 3.936v46.855c0 2.248-.563 2.623-2.625 2.623h-22.115c-2.061 0-2.625-.561-2.625-2.623v-5.623-56.412-2.063c-.187-7.498 0-14.994 0-22.303 0-.75 0-1.498.564-2.063v-2.813V53.782c0-2.811-.375-2.436 2.436-2.436H203.817c.562 0 .937.188.937.938v105.33c-.002.376-.002 1.313-.002 2.061zM110.292-41.801c2.998.188 5.436 2.625 5.247 5.811-.187 2.998-2.811 5.248-5.622 5.248-2.998-.187-5.435-2.625-5.247-5.81.187-2.999 2.811-5.249 5.622-5.249zM133.72-74.224c0 3-2.625 5.436-5.623 5.436s-5.436-2.625-5.247-5.436c0-2.998 2.623-5.434 5.434-5.434 2.999 0 5.436 2.436 5.436 5.434zM115.539-42.925c-2.997 0-5.434-2.436-5.434-5.436 0-2.998 2.437-5.434 5.434-5.434 3 0 5.437 2.436 5.437 5.434.186 3-2.25 5.436-5.437 5.436zM137.093-96.152c3.562 0 6.185 2.625 6.185 5.998 0 3.562-2.623 6.185-6.185 6.185-3.373 0-6.185-2.623-6.185-6.185 0-3.187 2.625-5.998 6.185-5.998zM120.976-65.977c2.998 0 5.434 2.25 5.434 5.248 0 3.187-2.247 5.623-5.434 5.623-3 0-5.437-2.436-5.437-5.436.189-2.998 2.437-5.435 5.437-5.435zM109.731-25.306c0 2.998-2.437 5.434-5.623 5.434-3 0-5.247-2.436-5.247-5.434 0-3.187 2.436-5.436 5.622-5.249 2.998-.187 5.248 2.249 5.248 5.249z"/></g><g fill="#FFF"><path d="M785 274.569c6.16-11.126 9.241-23.936 9.241-38.419 0-10.993-1.756-21.252-5.255-30.775-3.505-9.517-8.517-17.701-15.039-24.54-6.523-6.839-14.314-12.201-23.374-16.092-9.06-3.885-19.15-5.833-30.26-5.833H598.19v267.121h48.922V321.436h53.634c14.495 0 24.398 2.753 29.716 8.247 5.311 5.5 7.973 14.684 7.973 27.557v68.792h49.284v-75.631c0-15.551-2.236-27.218-6.704-34.999-4.474-7.775-12.021-13.54-22.649-17.299 11.595-4.557 20.473-12.402 26.634-23.534zm-46.204-8.247c-5.561 6.707-15.102 10.058-28.629 10.058h-63.056v-71.206h64.867c12.56 0 21.563 3.357 26.998 10.057 5.436 6.707 8.154 15.287 8.154 25.747.001 10.195-2.779 18.643-8.334 25.344zM923.25 354.826L879.764 158.91h-73.927v267.121h46.748V243.793l44.573 182.238h50.01l44.936-183.041v183.041h47.11V158.91h-72.477zM1326.399 308.16c-3.262-5.362-7.248-9.856-11.959-13.477-4.711-3.621-9.729-6.639-15.039-9.052-9.422-4.558-19.813-8.58-31.166-12.069-11.358-3.481-24.767-7.241-40.225-11.264-13.046-3.482-22.53-7.845-28.447-13.074-5.923-5.23-8.879-11.729-8.879-19.512 0-21.724 14.253-32.585 42.762-32.585 15.458 0 27.055 3.357 34.789 10.058 7.729 6.707 12.197 16.896 13.409 30.574h47.835c-.487-13.137-3.023-25.143-7.61-36.005-4.592-10.862-11.053-20.115-19.388-27.758-8.335-7.644-18.301-13.54-29.896-17.701-11.597-4.155-24.643-6.235-39.139-6.235-14.982 0-27.966 2.081-38.956 6.235-10.996 4.161-20.237 9.793-27.723 16.896-7.491 7.109-13.046 15.488-16.67 25.143s-5.436 19.983-5.436 30.976c0 14.482 2.05 26.42 6.16 35.805 4.105 9.391 10.51 17.367 19.207 23.936 8.697 6.575 19.75 12.069 33.158 16.494 13.408 4.426 29.291 8.788 47.653 13.074 7.729 1.88 14.009 3.96 18.845 6.236 4.83 2.281 8.635 4.896 11.415 7.844 2.774 2.955 4.648 6.236 5.617 9.856.962 3.621 1.449 7.581 1.449 11.868 0 11-4.11 19.712-12.321 26.148-8.216 6.437-20.293 9.655-36.238 9.655-14.739 0-26.998-3.954-36.782-11.868-9.784-7.907-14.802-18.706-15.039-32.384h-48.56c.962 29.505 10.266 51.764 27.903 66.78 17.633 15.017 43.968 22.528 79 22.528 12.321 0 24.037-1.811 35.152-5.432 11.109-3.62 20.774-8.85 28.99-15.688 8.211-6.839 14.733-15.219 19.569-25.144 4.83-9.919 7.248-21.321 7.248-34.194 0-10.724-.969-19.845-2.899-27.356-1.935-7.503-4.529-13.939-7.789-19.308zM1395.071 174.599h-46.386v177.008c0 10.729 1.325 20.919 3.986 30.574 2.655 9.655 6.942 18.103 12.865 25.344 5.917 7.242 13.465 13.012 22.648 17.299 9.179 4.287 20.294 6.437 33.34 6.437 12.56 0 23.374-2.149 32.434-6.437s16.545-10.12 22.468-17.499c5.917-7.374 10.267-15.822 13.046-25.345 2.775-9.517 4.168-19.511 4.168-29.971v-56.321h-43.849v51.494c0 12.339-2.237 21.861-6.704 28.563-4.474 6.707-11.416 10.057-20.838 10.057-9.665 0-16.613-3.419-20.837-10.258-4.229-6.839-6.342-16.557-6.342-29.166v-81.263h98.569v-37.011h-98.569v-53.505zM1624.458 342.355c0 13.144-3.081 23.937-9.241 32.385s-15.282 12.672-27.36 12.672c-20.056 0-30.078-12.333-30.078-37.011V228.105h-47.11v130.342c0 11 1.507 20.919 4.53 29.77 3.018 8.851 7.186 16.494 12.502 22.931 5.312 6.437 11.653 11.402 19.025 14.885 7.367 3.482 15.521 5.229 24.461 5.229 24.881 0 43.362-10.993 55.445-32.987v27.758h44.574V228.105h-46.748v114.25zM1812.535 253.851c-13.29-20.648-30.928-30.977-52.909-30.977-11.596 0-21.924 2.483-30.983 7.442-9.06 4.966-16.732 12.006-23.012 21.12-6.285 9.121-11.053 19.914-14.314 32.385s-4.893 26.218-4.893 41.235c0 16.632 1.932 31.517 5.799 44.654 3.861 13.144 9.179 24.275 15.944 33.39 6.761 9.121 14.858 16.092 24.28 20.919 9.422 4.828 19.807 7.241 31.165 7.241 22.225 0 38.775-9.787 49.647-29.367l.362 24.138h45.298v-270.34h-46.385v98.16zm-9.603 119.078c-7.61 10.46-17.095 15.689-28.447 15.689-11.84 0-21.506-5.563-28.991-16.695-7.491-11.126-11.234-25.545-11.234-43.246 0-40.764 13.527-61.148 40.588-61.148 26.33 0 39.5 21.46 39.5 64.367-.001 16.895-3.806 30.574-11.416 41.033zM1878.848 155.692h47.11v48.677h-47.11zM1878.848 228.105h47.11v197.927h-47.11zM2117.839 284.023c-4.23-12.873-10.271-23.798-18.12-32.787-7.854-8.982-17.338-15.953-28.447-20.919-11.115-4.959-23.68-7.442-37.688-7.442-14.258 0-26.998 2.483-38.232 7.442-11.233 4.966-20.837 12.006-28.81 21.12-7.973 9.121-14.076 20.115-18.301 32.988-4.229 12.873-6.342 27.092-6.342 42.643 0 15.287 2.05 29.367 6.161 42.241 4.104 12.873 10.084 23.873 17.938 32.987 7.849 9.121 17.451 16.23 28.811 21.321 11.353 5.092 24.279 7.644 38.775 7.644 13.771 0 26.272-2.482 37.507-7.442 11.233-4.959 20.774-11.999 28.628-21.12 7.849-9.114 13.89-20.045 18.12-32.786 4.224-12.735 6.342-27.017 6.342-42.845 0-15.822-2.118-30.172-6.342-43.045zm-84.255 103.388c-28.754 0-43.124-20.114-43.124-60.344 0-39.959 14.37-59.941 43.124-59.941 28.747 0 43.124 19.982 43.124 59.941 0 40.23-14.377 60.344-43.124 60.344z"/></g><g stroke="#FFF" stroke-miterlimit="10"><path fill="none" stroke-width="4" d="M2192.783 186.372c0 19.952-16.172 36.125-36.123 36.125-19.954 0-36.126-16.173-36.126-36.125 0-19.948 16.172-36.124 36.126-36.124 19.952 0 36.123 16.176 36.123 36.124z"/><text transform="translate(2134.9768 208.5935)" fill="#FFF" font-family="'CoolveticaRg-Regular'" font-size="66.7558">C</text></g></svg>